<svg width="20" height="22" fill="none" xmlns="http://www.w3.org/2000/svg">
<path d="M9.95264 19.4736C8.78499 19.4736 7.68929 19.2523 6.66553 18.8096C5.64176 18.3724 4.74251 17.7664 3.96777 16.9917C3.19303 16.2114 2.58431 15.3122 2.1416 14.2939C1.70443 13.2702 1.48584 12.1745 1.48584 11.0068C1.48584 9.83919 1.70443 8.74349 2.1416 7.71973C2.58431 6.69596 3.19303 5.79671 3.96777 5.02197C4.74251 4.24723 5.64176 3.64128 6.66553 3.2041C7.68929 2.76139 8.78499 2.54004 9.95264 2.54004C11.1203 2.54004 12.216 2.76139 13.2397 3.2041C14.2635 3.64128 15.1628 4.24723 15.9375 5.02197C16.7122 5.79671 17.3182 6.69596 17.7554 7.71973C18.1981 8.74349 18.4194 9.83919 18.4194 11.0068C18.4194 12.1745 18.1981 13.2702 17.7554 14.2939C17.3182 15.3122 16.7122 16.2114 15.9375 16.9917C15.1628 17.7664 14.2635 18.3724 13.2397 18.8096C12.216 19.2523 11.1203 19.4736 9.95264 19.4736ZM9.95264 12.5508C10.3843 12.5508 10.6029 12.3239 10.6084 11.8701L10.7329 7.35449C10.7384 7.13867 10.6637 6.95882 10.5088 6.81494C10.3594 6.66553 10.1712 6.59082 9.94434 6.59082C9.71191 6.59082 9.521 6.66276 9.37158 6.80664C9.2277 6.95052 9.15853 7.13037 9.16406 7.34619L9.27197 11.8701C9.28304 12.3239 9.50993 12.5508 9.95264 12.5508ZM9.95264 15.3315C10.2017 15.3315 10.4175 15.2458 10.6001 15.0742C10.7882 14.9027 10.8823 14.6924 10.8823 14.4434C10.8823 14.1943 10.7882 13.984 10.6001 13.8125C10.4175 13.6354 10.2017 13.5469 9.95264 13.5469C9.69808 13.5469 9.47949 13.6354 9.29688 13.8125C9.11426 13.9896 9.02295 14.1999 9.02295 14.4434C9.02295 14.6924 9.11426 14.9027 9.29688 15.0742C9.48503 15.2458 9.70361 15.3315 9.95264 15.3315Z" fill="#1D70B8"/>
</svg>
