<svg width="28" height="13" viewBox="0 0 28 13" fill="none" xmlns="http://www.w3.org/2000/svg">
<path opacity="0.35" d="M4.59863 0.527344H21.5986C23.5164 0.527344 25.0713 2.08222 25.0713 4V9C25.0713 10.9178 23.5164 12.4727 21.5986 12.4727H4.59863C2.68085 12.4727 1.12598 10.9178 1.12598 9V4C1.12598 2.08222 2.68085 0.527344 4.59863 0.527344Z" fill="white" stroke="white" stroke-width="1.05509"/>
<path opacity="0.4" d="M26.5986 5V9.22034C27.4477 8.86291 27.9998 8.0314 27.9998 7.11017C27.9998 6.18894 27.4477 5.35744 26.5986 5Z" fill="white"/>
<path d="M2.59863 4C2.59863 2.89543 3.49406 2 4.59863 2H21.5986C22.7032 2 23.5986 2.89543 23.5986 4V9C23.5986 10.1046 22.7032 11 21.5986 11H4.59863C3.49406 11 2.59863 10.1046 2.59863 9V4Z" fill="white"/>
</svg>
