<svg width="49" height="40" viewBox="0 0 49 40" fill="none" xmlns="http://www.w3.org/2000/svg">
<path d="M11.0425 38V30.9541H12.1362V33.9326H15.7495V30.9541H16.8481V38H15.7495V34.8799H12.1362V38H11.0425ZM20.7446 38.1025C20.2271 38.1025 19.7795 37.9919 19.4019 37.7705C19.0275 37.5492 18.7394 37.2334 18.5376 36.8232C18.3358 36.4098 18.2349 35.9199 18.2349 35.3535V35.3438C18.2349 34.7741 18.3358 34.2842 18.5376 33.874C18.7427 33.4639 19.0324 33.1481 19.4067 32.9268C19.7843 32.7054 20.2303 32.5947 20.7446 32.5947C21.2622 32.5947 21.7082 32.7054 22.0825 32.9268C22.4569 33.1449 22.745 33.4606 22.9468 33.874C23.1519 34.2842 23.2544 34.7741 23.2544 35.3438V35.3535C23.2544 35.9199 23.1519 36.4098 22.9468 36.8232C22.745 37.2334 22.4569 37.5492 22.0825 37.7705C21.7114 37.9919 21.2655 38.1025 20.7446 38.1025ZM20.7446 37.2139C21.0474 37.2139 21.3045 37.1406 21.5161 36.9941C21.7277 36.8444 21.8888 36.6312 21.9995 36.3545C22.1102 36.0778 22.1655 35.7441 22.1655 35.3535V35.3438C22.1655 34.9499 22.1102 34.6146 21.9995 34.3379C21.8888 34.0612 21.7277 33.8496 21.5161 33.7031C21.3045 33.5534 21.0474 33.4785 20.7446 33.4785C20.4419 33.4785 20.1847 33.5534 19.9731 33.7031C19.7616 33.8496 19.5988 34.0612 19.4849 34.3379C19.3742 34.6146 19.3188 34.9499 19.3188 35.3438V35.3535C19.3188 35.7441 19.3742 36.0778 19.4849 36.3545C19.5988 36.6312 19.7616 36.8444 19.9731 36.9941C20.1847 37.1406 20.4419 37.2139 20.7446 37.2139ZM24.5142 38V32.6973H25.5737V33.5127H25.6567C25.7739 33.2197 25.9562 32.9935 26.2036 32.834C26.4543 32.6745 26.7537 32.5947 27.1021 32.5947C27.3429 32.5947 27.5594 32.6338 27.7515 32.7119C27.9435 32.79 28.1079 32.9007 28.2446 33.0439C28.3846 33.1839 28.4937 33.3499 28.5718 33.542H28.6548C28.7427 33.3499 28.8664 33.1839 29.0259 33.0439C29.1854 32.9007 29.3709 32.79 29.5825 32.7119C29.7974 32.6338 30.0252 32.5947 30.2661 32.5947C30.6242 32.5947 30.9302 32.6647 31.1841 32.8047C31.438 32.9414 31.6317 33.14 31.7651 33.4004C31.8986 33.6608 31.9653 33.9749 31.9653 34.3428V38H30.9058V34.5967C30.9058 34.3525 30.8683 34.1507 30.7935 33.9912C30.7186 33.8285 30.6047 33.7064 30.4517 33.625C30.3019 33.5436 30.1131 33.5029 29.8853 33.5029C29.6606 33.5029 29.4637 33.555 29.2944 33.6592C29.1284 33.7601 28.9982 33.8968 28.9038 34.0693C28.8127 34.2386 28.7671 34.4307 28.7671 34.6455V38H27.7075V34.4893C27.7075 34.2874 27.6652 34.1133 27.5806 33.9668C27.4992 33.8171 27.382 33.7031 27.229 33.625C27.076 33.5436 26.8953 33.5029 26.687 33.5029C26.4754 33.5029 26.285 33.5583 26.1157 33.6689C25.9497 33.7796 25.8179 33.9294 25.7202 34.1182C25.6226 34.3037 25.5737 34.512 25.5737 34.7432V38H24.5142ZM35.6763 38.1025C35.1587 38.1025 34.7144 37.9919 34.3433 37.7705C33.9722 37.5459 33.6857 37.2285 33.4839 36.8184C33.2853 36.4082 33.186 35.9232 33.186 35.3633V35.3584C33.186 34.805 33.2853 34.3216 33.4839 33.9082C33.6857 33.4948 33.9689 33.1725 34.3335 32.9414C34.7013 32.7103 35.131 32.5947 35.6226 32.5947C36.1174 32.5947 36.5422 32.7054 36.897 32.9268C37.255 33.1481 37.5301 33.459 37.7222 33.8594C37.9142 34.2565 38.0103 34.722 38.0103 35.2559V35.627H33.7231V34.8701H37.4829L36.9751 35.5732V35.1484C36.9751 34.7708 36.9165 34.4583 36.7993 34.2109C36.6854 33.9603 36.5275 33.7731 36.3257 33.6494C36.1239 33.5257 35.8911 33.4639 35.6274 33.4639C35.3638 33.4639 35.1278 33.529 34.9194 33.6592C34.7144 33.7861 34.5516 33.9749 34.4312 34.2256C34.314 34.4762 34.2554 34.7839 34.2554 35.1484V35.5732C34.2554 35.9215 34.314 36.2194 34.4312 36.4668C34.5483 36.7142 34.7144 36.903 34.9292 37.0332C35.1473 37.1634 35.4045 37.2285 35.7007 37.2285C35.9285 37.2285 36.1239 37.1976 36.2866 37.1357C36.4526 37.0706 36.5877 36.9909 36.6919 36.8965C36.7993 36.8021 36.8726 36.7093 36.9116 36.6182L36.9312 36.5791H37.9565L37.9468 36.623C37.9012 36.7988 37.8215 36.9746 37.7075 37.1504C37.5936 37.3229 37.4422 37.4808 37.2534 37.624C37.0679 37.7673 36.8433 37.8828 36.5796 37.9707C36.3192 38.0586 36.0181 38.1025 35.6763 38.1025Z" fill="#4D4D4D"/>
<path d="M21.7847 18.7842V13.2383C21.7847 13.0332 21.8462 12.8691 21.9692 12.7461C22.0981 12.6172 22.2681 12.5527 22.479 12.5527H26.188C26.3989 12.5527 26.563 12.6172 26.6802 12.7461C26.8032 12.8691 26.8647 13.0332 26.8647 13.2383V18.7842H21.7847ZM14.4985 10.9443C14.2173 10.9443 13.9946 10.8623 13.8306 10.6982C13.6724 10.5283 13.5933 10.3291 13.5933 10.1006C13.5933 9.8252 13.7075 9.59375 13.936 9.40625L23.0942 1.71582C23.4751 1.39355 23.8853 1.23242 24.3247 1.23242C24.77 1.23242 25.1802 1.39355 25.5552 1.71582L34.7134 9.40625C34.9478 9.59375 35.0649 9.8252 35.0649 10.1006C35.0649 10.3291 34.9829 10.5283 34.8188 10.6982C34.6606 10.8623 34.4409 10.9443 34.1597 10.9443C34.0249 10.9443 33.896 10.915 33.7729 10.8564C33.6558 10.792 33.5444 10.7158 33.439 10.6279L24.7026 3.29785C24.5854 3.19824 24.4595 3.14844 24.3247 3.14844C24.1958 3.14844 24.0728 3.19824 23.9556 3.29785L15.228 10.6279C15.1167 10.7158 14.9995 10.792 14.8765 10.8564C14.7593 10.915 14.6333 10.9443 14.4985 10.9443ZM29.9058 5.84668V3.80762C29.9058 3.6084 29.9644 3.4502 30.0815 3.33301C30.2046 3.21582 30.3628 3.15723 30.5562 3.15723H31.7427C31.9419 3.15723 32.1001 3.21582 32.2173 3.33301C32.3345 3.4502 32.3931 3.6084 32.3931 3.80762V7.93848L29.9058 5.84668ZM18.3833 20.0674C17.7153 20.0674 17.1938 19.8857 16.8188 19.5225C16.4497 19.165 16.2651 18.6582 16.2651 18.002V8.21973L17.9878 7.05078V17.4834C17.9878 17.7588 18.061 17.9697 18.2075 18.1162C18.3599 18.2627 18.5708 18.3359 18.8403 18.3359H29.8179C30.0933 18.3359 30.3013 18.2627 30.4419 18.1162C30.5884 17.9697 30.6616 17.7588 30.6616 17.4834V7.04199L32.3931 8.21973V18.002C32.3931 18.6523 32.2056 19.1592 31.8306 19.5225C31.4614 19.8857 30.9429 20.0674 30.2749 20.0674H18.3833Z" fill="#4D4D4D"/>
</svg>
