<svg width="49" height="40" viewBox="0 0 49 40" fill="none" xmlns="http://www.w3.org/2000/svg">
<path d="M7.82129 38.1709C7.29069 38.1709 6.82845 38.0879 6.43457 37.9219C6.04069 37.7526 5.72982 37.5182 5.50195 37.2188C5.27409 36.9193 5.14388 36.5726 5.11133 36.1787L5.10645 36.1152H6.18555L6.19043 36.1689C6.21322 36.3805 6.29622 36.5645 6.43945 36.7207C6.58594 36.877 6.78125 36.999 7.02539 37.0869C7.27279 37.1748 7.55436 37.2188 7.87012 37.2188C8.16634 37.2188 8.43001 37.1715 8.66113 37.0771C8.89225 36.9827 9.07292 36.8525 9.20312 36.6865C9.33659 36.5205 9.40332 36.3301 9.40332 36.1152V36.1104C9.40332 35.8402 9.30078 35.6156 9.0957 35.4365C8.89062 35.2575 8.55534 35.1175 8.08984 35.0166L7.31836 34.8555C6.60547 34.7025 6.08626 34.46 5.76074 34.1279C5.43522 33.7926 5.27246 33.3646 5.27246 32.8438V32.8389C5.27572 32.432 5.38477 32.0739 5.59961 31.7646C5.81771 31.4554 6.11882 31.2145 6.50293 31.042C6.88704 30.8695 7.32812 30.7832 7.82617 30.7832C8.32422 30.7832 8.75879 30.8695 9.12988 31.042C9.50423 31.2113 9.79883 31.4424 10.0137 31.7354C10.2318 32.0283 10.3538 32.3587 10.3799 32.7266L10.3848 32.79H9.31543L9.30566 32.7266C9.27637 32.5345 9.19661 32.3636 9.06641 32.2139C8.93945 32.0641 8.76855 31.9469 8.55371 31.8623C8.34212 31.7744 8.09473 31.7321 7.81152 31.7354C7.53809 31.7354 7.29395 31.7777 7.0791 31.8623C6.86426 31.9437 6.69336 32.0625 6.56641 32.2188C6.44271 32.375 6.38086 32.5638 6.38086 32.7852V32.79C6.38086 33.0505 6.48014 33.2686 6.67871 33.4443C6.88053 33.6169 7.20768 33.752 7.66016 33.8496L8.43164 34.0205C8.92318 34.1247 9.32194 34.263 9.62793 34.4355C9.93392 34.6081 10.1569 34.8213 10.2969 35.0752C10.4401 35.3258 10.5117 35.6253 10.5117 35.9736V35.9785C10.5117 36.4277 10.401 36.8167 10.1797 37.1455C9.96159 37.471 9.65072 37.7233 9.24707 37.9023C8.84342 38.0814 8.36816 38.1709 7.82129 38.1709ZM14.0566 38.1025C13.5391 38.1025 13.0947 37.9919 12.7236 37.7705C12.3525 37.5459 12.0661 37.2285 11.8643 36.8184C11.6657 36.4082 11.5664 35.9232 11.5664 35.3633V35.3584C11.5664 34.805 11.6657 34.3216 11.8643 33.9082C12.0661 33.4948 12.3493 33.1725 12.7139 32.9414C13.0817 32.7103 13.5114 32.5947 14.0029 32.5947C14.4977 32.5947 14.9225 32.7054 15.2773 32.9268C15.6354 33.1481 15.9105 33.459 16.1025 33.8594C16.2946 34.2565 16.3906 34.722 16.3906 35.2559V35.627H12.1035V34.8701H15.8633L15.3555 35.5732V35.1484C15.3555 34.7708 15.2969 34.4583 15.1797 34.2109C15.0658 33.9603 14.9079 33.7731 14.7061 33.6494C14.5042 33.5257 14.2715 33.4639 14.0078 33.4639C13.7441 33.4639 13.5081 33.529 13.2998 33.6592C13.0947 33.7861 12.932 33.9749 12.8115 34.2256C12.6943 34.4762 12.6357 34.7839 12.6357 35.1484V35.5732C12.6357 35.9215 12.6943 36.2194 12.8115 36.4668C12.9287 36.7142 13.0947 36.903 13.3096 37.0332C13.5277 37.1634 13.7848 37.2285 14.0811 37.2285C14.3089 37.2285 14.5042 37.1976 14.667 37.1357C14.833 37.0706 14.9681 36.9909 15.0723 36.8965C15.1797 36.8021 15.2529 36.7093 15.292 36.6182L15.3115 36.5791H16.3369L16.3271 36.623C16.2816 36.7988 16.2018 36.9746 16.0879 37.1504C15.974 37.3229 15.8226 37.4808 15.6338 37.624C15.4482 37.7673 15.2236 37.8828 14.96 37.9707C14.6995 38.0586 14.3984 38.1025 14.0566 38.1025ZM19.6523 38.0342C19.0729 38.0342 18.653 37.9235 18.3926 37.7021C18.1354 37.4775 18.0068 37.1113 18.0068 36.6035V33.5322H17.1768V32.6973H18.0068V31.3594H19.0908V32.6973H20.2285V33.5322H19.0908V36.3447C19.0908 36.6312 19.1478 36.8379 19.2617 36.9648C19.3757 37.0885 19.5645 37.1504 19.8281 37.1504C19.9062 37.1504 19.973 37.1488 20.0283 37.1455C20.0869 37.1423 20.1536 37.1374 20.2285 37.1309V37.9805C20.1439 37.9935 20.0527 38.0049 19.9551 38.0146C19.8574 38.0277 19.7565 38.0342 19.6523 38.0342ZM23.4902 38.0342C22.9108 38.0342 22.4909 37.9235 22.2305 37.7021C21.9733 37.4775 21.8447 37.1113 21.8447 36.6035V33.5322H21.0146V32.6973H21.8447V31.3594H22.9287V32.6973H24.0664V33.5322H22.9287V36.3447C22.9287 36.6312 22.9857 36.8379 23.0996 36.9648C23.2135 37.0885 23.4023 37.1504 23.666 37.1504C23.7441 37.1504 23.8109 37.1488 23.8662 37.1455C23.9248 37.1423 23.9915 37.1374 24.0664 37.1309V37.9805C23.9818 37.9935 23.8906 38.0049 23.793 38.0146C23.6953 38.0277 23.5944 38.0342 23.4902 38.0342ZM25.3213 38V32.6973H26.3857V38H25.3213ZM25.8584 31.75C25.6761 31.75 25.5199 31.6849 25.3896 31.5547C25.2594 31.4245 25.1943 31.2682 25.1943 31.0859C25.1943 30.9036 25.2594 30.749 25.3896 30.6221C25.5199 30.4919 25.6761 30.4268 25.8584 30.4268C26.0407 30.4268 26.1969 30.4919 26.3271 30.6221C26.4574 30.749 26.5225 30.9036 26.5225 31.0859C26.5225 31.2682 26.4574 31.4245 26.3271 31.5547C26.1969 31.6849 26.0407 31.75 25.8584 31.75ZM27.9238 38V32.6973H28.9834V33.498H29.0664C29.1966 33.2148 29.3887 32.9935 29.6426 32.834C29.8965 32.6745 30.2171 32.5947 30.6045 32.5947C31.2002 32.5947 31.6559 32.7656 31.9717 33.1074C32.2874 33.4492 32.4453 33.9359 32.4453 34.5674V38H31.3809V34.8164C31.3809 34.3737 31.2881 34.0449 31.1025 33.8301C30.9202 33.612 30.6338 33.5029 30.2432 33.5029C29.986 33.5029 29.763 33.5599 29.5742 33.6738C29.3854 33.7845 29.2389 33.944 29.1348 34.1523C29.0339 34.3574 28.9834 34.6032 28.9834 34.8896V38H27.9238ZM36.1611 39.8701C35.7119 39.8701 35.3213 39.8083 34.9893 39.6846C34.6605 39.5609 34.4001 39.3883 34.208 39.167C34.016 38.9456 33.8988 38.6885 33.8564 38.3955L33.8613 38.3857H34.9355L34.9404 38.3955C34.986 38.5778 35.1146 38.7275 35.3262 38.8447C35.5378 38.9619 35.821 39.0205 36.1758 39.0205C36.612 39.0205 36.9521 38.9212 37.1963 38.7227C37.4437 38.5241 37.5674 38.2458 37.5674 37.8877V36.8477H37.4844C37.3802 37.0365 37.2467 37.1992 37.084 37.3359C36.9212 37.4694 36.7357 37.5703 36.5273 37.6387C36.319 37.707 36.0928 37.7412 35.8486 37.7412C35.3994 37.7412 35.0088 37.6338 34.6768 37.4189C34.348 37.2008 34.0941 36.9014 33.915 36.5205C33.7393 36.1364 33.6514 35.6953 33.6514 35.1973V35.1875C33.6514 34.6829 33.7409 34.237 33.9199 33.8496C34.099 33.459 34.3545 33.1546 34.6865 32.9365C35.0186 32.7152 35.4141 32.6045 35.873 32.6045C36.1204 32.6045 36.3467 32.6436 36.5518 32.7217C36.7601 32.7998 36.944 32.9105 37.1035 33.0537C37.263 33.1969 37.3949 33.3678 37.499 33.5664H37.5625V32.6973H38.6221V37.8926C38.6221 38.293 38.5212 38.6413 38.3193 38.9375C38.1208 39.2337 37.8376 39.4632 37.4697 39.626C37.1019 39.7887 36.6657 39.8701 36.1611 39.8701ZM36.1465 36.8623C36.446 36.8623 36.7031 36.7923 36.918 36.6523C37.1328 36.5091 37.2972 36.3122 37.4111 36.0615C37.5283 35.8109 37.5869 35.5212 37.5869 35.1924V35.1826C37.5869 34.8571 37.5283 34.5674 37.4111 34.3135C37.2972 34.0596 37.1328 33.861 36.918 33.7178C36.7031 33.5745 36.446 33.5029 36.1465 33.5029C35.847 33.5029 35.5915 33.5745 35.3799 33.7178C35.1715 33.861 35.012 34.0596 34.9014 34.3135C34.7907 34.5641 34.7354 34.8538 34.7354 35.1826V35.1924C34.7354 35.5212 34.7907 35.8109 34.9014 36.0615C35.012 36.3122 35.1715 36.5091 35.3799 36.6523C35.5915 36.7923 35.847 36.8623 36.1465 36.8623ZM42.0791 38.1025C41.6527 38.1025 41.2816 38.0407 40.9658 37.917C40.6501 37.79 40.3994 37.6159 40.2139 37.3945C40.0283 37.1699 39.9193 36.9095 39.8867 36.6133V36.6035H40.9512V36.6133C41.0195 36.8118 41.1497 36.973 41.3418 37.0967C41.5339 37.2204 41.7878 37.2822 42.1035 37.2822C42.3216 37.2822 42.512 37.2513 42.6748 37.1895C42.8408 37.1276 42.971 37.0413 43.0654 36.9307C43.1598 36.82 43.207 36.693 43.207 36.5498V36.54C43.207 36.374 43.1403 36.234 43.0068 36.1201C42.8734 36.0062 42.6536 35.9134 42.3477 35.8418L41.498 35.6465C41.166 35.5716 40.891 35.4691 40.6729 35.3389C40.4548 35.2087 40.2936 35.0492 40.1895 34.8604C40.0853 34.6683 40.0332 34.4437 40.0332 34.1865V34.1816C40.0332 33.8724 40.1211 33.599 40.2969 33.3613C40.4727 33.1204 40.7152 32.9333 41.0244 32.7998C41.3369 32.6631 41.6934 32.5947 42.0938 32.5947C42.4974 32.5947 42.849 32.6582 43.1484 32.7852C43.4512 32.9089 43.6904 33.0814 43.8662 33.3027C44.042 33.5208 44.1462 33.7747 44.1787 34.0645V34.0693H43.1631V34.0596C43.1143 33.874 42.9971 33.7194 42.8115 33.5957C42.6292 33.472 42.3883 33.4102 42.0889 33.4102C41.8968 33.4102 41.7259 33.4411 41.5762 33.5029C41.4264 33.5615 41.3076 33.6445 41.2197 33.752C41.1351 33.8561 41.0928 33.9798 41.0928 34.123V34.1328C41.0928 34.2435 41.1204 34.3411 41.1758 34.4258C41.2344 34.5072 41.3255 34.5804 41.4492 34.6455C41.5729 34.7074 41.7324 34.7627 41.9277 34.8115L42.7725 35.002C43.2803 35.1224 43.6579 35.2965 43.9053 35.5244C44.1559 35.7523 44.2812 36.0583 44.2812 36.4424V36.4521C44.2812 36.7777 44.1852 37.0658 43.9932 37.3164C43.8011 37.5638 43.5391 37.7575 43.207 37.8975C42.8783 38.0342 42.5023 38.1025 42.0791 38.1025Z" fill="#4D4D4D"/>
<path d="M24.2793 20.1904C23.916 20.1904 23.5996 20.0879 23.3301 19.8828C23.0605 19.6777 22.8877 19.3994 22.8115 19.0479L22.4512 17.4922L22.2139 17.4131L20.8691 18.2393C20.5645 18.4326 20.2422 18.5059 19.9023 18.459C19.5684 18.418 19.2725 18.2686 19.0146 18.0107L17.7842 16.7891C17.5205 16.5254 17.3682 16.2266 17.3271 15.8926C17.2861 15.5586 17.3623 15.2393 17.5557 14.9346L18.3994 13.5898L18.3203 13.3701L16.7646 13.0098C16.4189 12.9277 16.1406 12.752 15.9297 12.4824C15.7246 12.2129 15.6221 11.8994 15.6221 11.542V9.81055C15.6221 9.45312 15.7246 9.14258 15.9297 8.87891C16.1348 8.60938 16.4131 8.43066 16.7646 8.34277L18.3027 7.97363L18.3906 7.73633L17.5469 6.3916C17.3594 6.09277 17.2832 5.77637 17.3184 5.44238C17.3594 5.1084 17.5117 4.80957 17.7754 4.5459L19.0059 3.31543C19.2637 3.06348 19.5596 2.91406 19.8936 2.86719C20.2275 2.82031 20.5469 2.89063 20.8516 3.07812L22.2051 3.91309L22.4512 3.81641L22.8115 2.26074C22.8877 1.91504 23.0605 1.63965 23.3301 1.43457C23.5996 1.22363 23.916 1.11816 24.2793 1.11816H26.0635C26.4268 1.11816 26.7402 1.22363 27.0039 1.43457C27.2676 1.63965 27.4404 1.91504 27.5225 2.26074L27.8828 3.81641L28.1289 3.91309L29.4824 3.07812C29.7871 2.89063 30.1064 2.82031 30.4404 2.86719C30.7744 2.91406 31.0703 3.06348 31.3281 3.31543L32.5586 4.5459C32.8223 4.80957 32.9717 5.1084 33.0068 5.44238C33.0479 5.77637 32.9746 6.09277 32.7871 6.3916L31.9434 7.73633L32.04 7.97363L33.5693 8.34277C33.915 8.4248 34.1904 8.60059 34.3955 8.87012C34.6064 9.13965 34.7119 9.45312 34.7119 9.81055V11.542C34.7119 11.8994 34.6064 12.2129 34.3955 12.4824C34.1904 12.752 33.915 12.9277 33.5693 13.0098L32.0225 13.3701L31.9346 13.5898L32.7783 14.9346C32.9658 15.2393 33.0391 15.5586 32.998 15.8926C32.9629 16.2266 32.8135 16.5254 32.5498 16.7891L31.3193 18.0107C31.0615 18.2686 30.7627 18.418 30.4229 18.459C30.0889 18.5059 29.7695 18.4326 29.4648 18.2393L28.1113 17.4131L27.8828 17.4922L27.5225 19.0479C27.4404 19.3994 27.2676 19.6777 27.0039 19.8828C26.7402 20.0879 26.4268 20.1904 26.0635 20.1904H24.2793ZM24.499 18.5996H25.8438C25.9844 18.5996 26.0635 18.5322 26.0811 18.3975L26.6084 16.2354C26.9014 16.1709 27.1738 16.0859 27.4258 15.9805C27.6777 15.8691 27.9121 15.7461 28.1289 15.6113L30.0186 16.7715C30.1416 16.8535 30.25 16.8418 30.3438 16.7363L31.2754 15.7959C31.3691 15.7139 31.3779 15.6084 31.3018 15.4795L30.1416 13.5986C30.2646 13.3877 30.3789 13.1533 30.4844 12.8955C30.5957 12.6377 30.6836 12.3711 30.748 12.0957L32.9189 11.5771C33.0537 11.5537 33.1211 11.4717 33.1211 11.3311V10.0127C33.1211 9.87793 33.0537 9.7959 32.9189 9.7666L30.7568 9.24805C30.6865 8.95508 30.5928 8.67676 30.4756 8.41309C30.3643 8.14941 30.2559 7.92383 30.1504 7.73633L31.3105 5.84668C31.3926 5.72363 31.3838 5.6123 31.2842 5.5127L30.3525 4.59863C30.2529 4.50488 30.1416 4.49023 30.0186 4.55469L28.1289 5.70605C27.9121 5.58301 27.6748 5.46875 27.417 5.36328C27.165 5.25195 26.8955 5.16113 26.6084 5.09082L26.0811 2.91113C26.0635 2.77637 25.9844 2.70898 25.8438 2.70898H24.499C24.3525 2.70898 24.2676 2.77637 24.2441 2.91113L23.7344 5.07324C23.4531 5.14355 23.1748 5.2373 22.8994 5.35449C22.6299 5.46582 22.3955 5.58008 22.1963 5.69727L20.3066 4.55469C20.1895 4.49023 20.0811 4.50195 19.9814 4.58984L19.041 5.5127C18.9473 5.6123 18.9385 5.72363 19.0146 5.84668L20.1748 7.73633C20.0752 7.92383 19.9668 8.14941 19.8496 8.41309C19.7324 8.67676 19.6416 8.95508 19.5771 9.24805L17.415 9.7666C17.2803 9.7959 17.2129 9.87793 17.2129 10.0127V11.3311C17.2129 11.4717 17.2803 11.5537 17.415 11.5771L19.5771 12.0869C19.6475 12.3682 19.7383 12.6377 19.8496 12.8955C19.9609 13.1475 20.0752 13.3818 20.1924 13.5986L19.0234 15.4883C18.9531 15.6113 18.9619 15.7168 19.0498 15.8047L19.9902 16.7363C20.084 16.8418 20.1895 16.8564 20.3066 16.7803L22.2051 15.6113C22.4219 15.7461 22.6592 15.8691 22.917 15.9805C23.1807 16.0859 23.4502 16.1709 23.7256 16.2354L24.2441 18.3975C24.2676 18.5322 24.3525 18.5996 24.499 18.5996ZM25.167 13.9854C24.5518 13.9854 23.9893 13.8359 23.4795 13.5371C22.9756 13.2383 22.5742 12.8369 22.2754 12.333C21.9824 11.8232 21.8359 11.2637 21.8359 10.6543C21.8359 10.0391 21.9824 9.47949 22.2754 8.97559C22.5742 8.47168 22.9756 8.07031 23.4795 7.77148C23.9893 7.47266 24.5518 7.32324 25.167 7.32324C25.7822 7.32324 26.3418 7.47266 26.8457 7.77148C27.3496 8.07031 27.751 8.47168 28.0498 8.97559C28.3486 9.47949 28.498 10.0391 28.498 10.6543C28.498 11.2637 28.3486 11.8232 28.0498 12.333C27.751 12.8369 27.3496 13.2383 26.8457 13.5371C26.3418 13.8359 25.7822 13.9854 25.167 13.9854ZM25.167 12.4736C25.501 12.4736 25.8057 12.3916 26.0811 12.2275C26.3564 12.0635 26.5762 11.8438 26.7402 11.5684C26.9043 11.293 26.9863 10.9883 26.9863 10.6543C26.9863 10.3145 26.9043 10.0098 26.7402 9.74023C26.5762 9.46484 26.3564 9.24512 26.0811 9.08105C25.8057 8.91699 25.501 8.83496 25.167 8.83496C24.8271 8.83496 24.5195 8.91699 24.2441 9.08105C23.9746 9.24512 23.7578 9.46484 23.5938 9.74023C23.4297 10.0098 23.3477 10.3145 23.3477 10.6543C23.3477 10.9883 23.4297 11.293 23.5938 11.5684C23.7578 11.8438 23.9746 12.0635 24.2441 12.2275C24.5195 12.3916 24.8271 12.4736 25.167 12.4736Z" fill="#4D4D4D"/>
</svg>
