<svg width="31" height="30" viewBox="0 0 31 30" fill="none" xmlns="http://www.w3.org/2000/svg">
<path d="M5.42676 29.6211C4.90202 29.6211 4.56348 29.4561 4.41113 29.126C4.25879 28.8044 4.33073 28.4531 4.62695 28.0723C4.80469 27.8522 5.04167 27.5645 5.33789 27.209C5.63411 26.8535 5.94303 26.4642 6.26465 26.041C6.58626 25.6178 6.87402 25.1947 7.12793 24.7715C7.18717 24.6445 7.19987 24.5345 7.16602 24.4414C7.13216 24.3398 7.05176 24.2552 6.9248 24.1875C5.51986 23.4258 4.31803 22.5202 3.31934 21.4707C2.3291 20.4128 1.57161 19.2617 1.04688 18.0176C0.530599 16.765 0.272461 15.4574 0.272461 14.0947C0.272461 12.4189 0.657552 10.8532 1.42773 9.39746C2.19792 7.94173 3.26432 6.66374 4.62695 5.56348C5.98958 4.46322 7.57227 3.60417 9.375 2.98633C11.1862 2.36003 13.1286 2.04688 15.2021 2.04688C17.2673 2.04688 19.2012 2.36003 21.0039 2.98633C22.8151 3.60417 24.402 4.46322 25.7646 5.56348C27.1357 6.66374 28.2021 7.94173 28.9639 9.39746C29.734 10.8532 30.1191 12.4189 30.1191 14.0947C30.1191 15.5166 29.861 16.8454 29.3447 18.0811C28.8369 19.3167 28.1048 20.4297 27.1484 21.4199C26.1921 22.4017 25.0495 23.2438 23.7207 23.9463C22.4004 24.6488 20.932 25.1862 19.3154 25.5586C17.6989 25.931 15.9723 26.1214 14.1357 26.1299C14.0765 26.1299 14.0088 26.1257 13.9326 26.1172C13.8649 26.1172 13.793 26.113 13.7168 26.1045C13.6068 26.1045 13.4967 26.1214 13.3867 26.1553C13.2767 26.1891 13.1582 26.2526 13.0312 26.3457C12.4303 26.7689 11.7702 27.1751 11.0508 27.5645C10.3398 27.9538 9.62467 28.305 8.90527 28.6182C8.19434 28.9313 7.53418 29.1768 6.9248 29.3545C6.31543 29.5322 5.81608 29.6211 5.42676 29.6211Z" fill="#FFFFFF"/>
</svg>
