<svg width="120" height="120" viewBox="0 0 436 405" xmlns="http://www.w3.org/2000/svg">
  <defs>
    <linearGradient id='staticGradient1' gradientUnits='objectBoundingBox' x1='0' y1='0' x2='1' y2='1'>
      <stop offset='0' stop-color='#00FFE0' />
      <stop offset='.5' stop-color='#0F385C' />
      <stop offset='1' stop-color='#1D70B8' />
    </linearGradient>
    <linearGradient id='staticGradient2' gradientUnits='objectBoundingBox' x1='0' y1='1' x2='1' y2='1'>
      <stop offset='0' stop-color='#00FFE0' />
      <stop offset='1' stop-color='#0F385C' stop-opacity="0" />
    </linearGradient>
  </defs>
  
  <path d="M435.593 202.328C435.465 314.703 342.537 405.857 229.899 404.178C197.855 403.701 167.614 395.813 140.823 382.139C130.899 377.079 119.105 377.267 109.386 382.702C80.451 398.896 42.7112 404.076 7.73847 402.244C7.50788 402.236 7.28584 402.21 7.06379 402.185C0.726848 401.384 -1.24597 393.018 3.93802 389.278C30.3021 370.255 47.6561 339.587 48.4247 304.846C48.6467 300.322 48.4759 295.739 47.8525 291.062C47.229 286.317 46.1444 281.495 44.573 276.58C41.7974 269.586 39.3975 262.413 37.4076 255.061C32.7788 238.031 30.3277 220.098 30.3789 201.595C30.6437 89.7313 121.052 -0.119148 233.195 0.000118598C345.065 0.119385 435.712 90.677 435.593 202.328Z" fill="url(#staticGradient1)"/>
  <path d="M435.593 202.328C435.465 314.703 342.537 405.857 229.899 404.178C197.855 403.701 167.614 395.813 140.823 382.139C130.899 377.079 119.105 377.267 109.386 382.702C80.451 398.896 42.7112 404.076 7.73847 402.244C7.50788 402.236 7.28584 402.21 7.06379 402.185C0.726848 401.384 -1.24597 393.018 3.93802 389.278C30.3021 370.255 47.6561 339.587 48.4247 304.846C48.6467 300.322 48.4759 295.739 47.8525 291.062C47.229 286.317 46.1444 281.495 44.573 276.58C41.7974 269.586 39.3975 262.413 37.4076 255.061C32.7788 238.031 30.3277 220.098 30.3789 201.595C30.6437 89.7313 121.052 -0.119148 233.195 0.000118598C345.065 0.119385 435.712 90.677 435.593 202.328Z" fill="url(#staticGradient2)"/>
</svg>
