<svg width="85" height="85" viewBox="0 0 60 55" fill="none" xmlns="http://www.w3.org/2000/svg">
<path d="M30.9901 1.5967e-05C45.9191 0.0161054 58.0158 12.2077 57.9999 27.2393C57.9828 42.3683 45.5813 54.64 30.5497 54.4141C26.2737 54.3498 22.2381 53.288 18.6629 51.4473C17.3386 50.766 15.7646 50.7917 14.4676 51.5235C10.6064 53.7036 5.57012 54.4009 0.903182 54.1543C0.872585 54.1532 0.842802 54.1499 0.813338 54.1465C-0.0322795 54.0387 -0.296294 52.9118 0.395369 52.4082C3.91364 49.8471 6.2303 45.7182 6.33287 41.041C6.36248 40.4321 6.3389 39.8151 6.25572 39.1856C6.17253 38.5469 6.02785 37.8979 5.81822 37.2363C5.44783 36.2948 5.12771 35.3286 4.86217 34.3389C4.24444 32.0462 3.91783 29.6318 3.92467 27.1406C3.96001 12.0804 16.0246 -0.0160409 30.9901 1.5967e-05ZM21.1151 29.2451C19.8907 29.2451 18.8983 30.2375 18.8983 31.4619C18.8984 32.6863 19.8907 33.6777 21.1151 33.6777H32.4813L32.7059 33.667C33.8244 33.5541 34.698 32.6102 34.6981 31.4619C34.6981 30.3136 33.8245 29.3688 32.7059 29.2559L32.4813 29.2451H21.1151ZM21.1151 21.5078C19.8907 21.5078 18.8983 22.5002 18.8983 23.7246C18.8985 24.9489 19.8908 25.9404 21.1151 25.9404H39.9784L40.203 25.9297C41.3212 25.8166 42.194 24.8727 42.1942 23.7246C42.1942 22.5764 41.3214 21.6317 40.203 21.5186L39.9784 21.5078H21.1151Z" fill="#1D70B8"/>
</svg>
