<svg width="48" height="40" viewBox="0 0 48 40" fill="none" xmlns="http://www.w3.org/2000/svg">
<path d="M16.3877 38.1709C15.7367 38.1709 15.1719 38.0212 14.6934 37.7217C14.2181 37.4222 13.8519 36.9974 13.5947 36.4473C13.3376 35.8971 13.209 35.2428 13.209 34.4844V34.4746C13.209 33.7129 13.3376 33.057 13.5947 32.5068C13.8519 31.9567 14.2181 31.5319 14.6934 31.2324C15.1686 30.9329 15.7334 30.7832 16.3877 30.7832C16.9053 30.7832 17.3724 30.8857 17.7891 31.0908C18.209 31.2926 18.5524 31.5726 18.8193 31.9307C19.0895 32.2887 19.2539 32.7005 19.3125 33.166V33.1953H18.2236L18.2188 33.1758C18.1536 32.8861 18.0348 32.6354 17.8623 32.4238C17.6898 32.2122 17.4782 32.0479 17.2275 31.9307C16.9769 31.8135 16.6969 31.7549 16.3877 31.7549C15.9678 31.7549 15.6032 31.8656 15.2939 32.0869C14.988 32.3083 14.7503 32.6224 14.5811 33.0293C14.415 33.4329 14.332 33.9147 14.332 34.4746V34.4844C14.332 35.0378 14.415 35.5179 14.5811 35.9248C14.7503 36.3317 14.988 36.6458 15.2939 36.8672C15.6032 37.0885 15.9694 37.1992 16.3926 37.1992C16.7018 37.1992 16.9818 37.1471 17.2324 37.043C17.4863 36.9388 17.6979 36.7907 17.8672 36.5986C18.0365 36.4033 18.152 36.1738 18.2139 35.9102L18.2236 35.8906H19.3174L19.3125 35.915C19.2441 36.3675 19.0781 36.763 18.8145 37.1016C18.5508 37.4401 18.2122 37.7038 17.7988 37.8926C17.3854 38.0781 16.915 38.1709 16.3877 38.1709ZM20.6797 38V30.6172H21.7393V33.498H21.8223C21.9525 33.2148 22.1445 32.9935 22.3984 32.834C22.6523 32.6745 22.973 32.5947 23.3604 32.5947C23.7542 32.5947 24.0879 32.6712 24.3613 32.8242C24.6348 32.9772 24.8431 33.2018 24.9863 33.498C25.1296 33.791 25.2012 34.1475 25.2012 34.5674V38H24.1367V34.8164C24.1367 34.3737 24.0439 34.0449 23.8584 33.8301C23.6761 33.612 23.3896 33.5029 22.999 33.5029C22.7419 33.5029 22.5189 33.5599 22.3301 33.6738C22.1413 33.7845 21.9948 33.944 21.8906 34.1523C21.7897 34.3574 21.7393 34.6032 21.7393 34.8896V38H20.6797ZM28.1309 38.0879C27.7956 38.0879 27.4945 38.0244 27.2275 37.8975C26.9639 37.7673 26.7555 37.5833 26.6025 37.3457C26.4495 37.1081 26.373 36.8298 26.373 36.5107V36.501C26.373 36.182 26.4495 35.9102 26.6025 35.6855C26.7588 35.4609 26.9834 35.2852 27.2764 35.1582C27.5726 35.028 27.9307 34.9499 28.3506 34.9238L30.3086 34.8066V35.5537L28.4971 35.6709C28.1325 35.6937 27.8639 35.7718 27.6914 35.9053C27.5189 36.0355 27.4326 36.2194 27.4326 36.457V36.4668C27.4326 36.7077 27.5254 36.8981 27.7109 37.0381C27.8965 37.1748 28.1309 37.2432 28.4141 37.2432C28.6777 37.2432 28.9121 37.1911 29.1172 37.0869C29.3255 36.9795 29.4883 36.8363 29.6055 36.6572C29.7227 36.4749 29.7812 36.2699 29.7812 36.042V34.3721C29.7812 34.0791 29.6901 33.8561 29.5078 33.7031C29.3288 33.5469 29.0618 33.4688 28.707 33.4688C28.4108 33.4688 28.1683 33.5208 27.9795 33.625C27.7939 33.7292 27.6702 33.8757 27.6084 34.0645L27.5986 34.0791H26.5781L26.583 34.0449C26.6253 33.752 26.7409 33.498 26.9297 33.2832C27.1217 33.0651 27.3724 32.8958 27.6816 32.7754C27.9941 32.6549 28.3506 32.5947 28.751 32.5947C29.1969 32.5947 29.5745 32.6663 29.8838 32.8096C30.1963 32.9495 30.4323 33.153 30.5918 33.4199C30.7546 33.6836 30.8359 34.001 30.8359 34.3721V38H29.7812V37.248H29.7031C29.599 37.4271 29.4688 37.5801 29.3125 37.707C29.1562 37.8307 28.9788 37.9251 28.7803 37.9902C28.5817 38.0553 28.3652 38.0879 28.1309 38.0879ZM34.332 38.0342C33.7526 38.0342 33.3327 37.9235 33.0723 37.7021C32.8151 37.4775 32.6865 37.1113 32.6865 36.6035V33.5322H31.8564V32.6973H32.6865V31.3594H33.7705V32.6973H34.9082V33.5322H33.7705V36.3447C33.7705 36.6312 33.8275 36.8379 33.9414 36.9648C34.0553 37.0885 34.2441 37.1504 34.5078 37.1504C34.5859 37.1504 34.6527 37.1488 34.708 37.1455C34.7666 37.1423 34.8333 37.1374 34.9082 37.1309V37.9805C34.8236 37.9935 34.7324 38.0049 34.6348 38.0146C34.5371 38.0277 34.4362 38.0342 34.332 38.0342Z" fill="#1D70B8"/>
</svg>
