<svg width="19" height="12" viewBox="0 0 19 12" fill="none" xmlns="http://www.w3.org/2000/svg">
<path d="M1.59863 8.5H2.59863C2.87477 8.5 3.09863 8.72386 3.09863 9V11C3.09863 11.2761 2.87477 11.5 2.59863 11.5H1.59863C1.32249 11.5 1.09863 11.2761 1.09863 11V9C1.09863 8.72386 1.32249 8.5 1.59863 8.5ZM6.59863 6H7.59863C7.87478 6 8.09863 6.22386 8.09863 6.5V11C8.09863 11.2761 7.87477 11.5 7.59863 11.5H6.59863C6.32249 11.5 6.09863 11.2761 6.09863 11V6.5C6.09863 6.22386 6.32249 6 6.59863 6ZM11.5986 2.5H12.5986C12.8748 2.5 13.0986 2.72386 13.0986 3V11C13.0986 11.2761 12.8748 11.5 12.5986 11.5H11.5986C11.3225 11.5 11.0986 11.2761 11.0986 11V3C11.0986 2.72386 11.3225 2.5 11.5986 2.5ZM16.5986 0.5H17.5986C17.8748 0.5 18.0986 0.723858 18.0986 1V11C18.0986 11.2761 17.8748 11.5 17.5986 11.5H16.5986C16.3225 11.5 16.0986 11.2761 16.0986 11V1C16.0986 0.723858 16.3225 0.5 16.5986 0.5Z" fill="white" stroke="white"/>
</svg>
