<svg width="18" height="12" viewBox="0 0 18 12" fill="none" xmlns="http://www.w3.org/2000/svg">
<path d="M6.71387 9.08476C8.1336 7.85917 10.213 7.8593 11.6328 9.08476C11.7043 9.1507 11.7461 9.24428 11.7481 9.34257C11.75 9.44081 11.7122 9.53546 11.6436 9.60429L9.41993 11.8943C9.35482 11.9615 9.26643 11.9997 9.17383 11.9998C9.08112 11.9998 8.99194 11.9616 8.92676 11.8943L6.70313 9.60429C6.63452 9.53543 6.59665 9.44077 6.59864 9.34257C6.60067 9.24428 6.64239 9.15065 6.71387 9.08476ZM3.70801 6.26152C6.76709 3.35693 11.5044 3.35693 14.5635 6.26152C14.6325 6.32962 14.6719 6.42331 14.6729 6.52128C14.6737 6.61915 14.636 6.71357 14.5684 6.783L13.2832 8.1082C13.1508 8.24347 12.9366 8.24678 12.8008 8.11503C11.7963 7.1866 10.4899 6.67165 9.13477 6.67168C7.78045 6.67225 6.4746 7.18713 5.47071 8.11503C5.33484 8.24677 5.12072 8.24354 4.98829 8.1082L3.70313 6.783C3.63538 6.71365 3.59782 6.61921 3.59864 6.52128C3.59954 6.42332 3.63903 6.32961 3.70801 6.26152ZM0.70606 3.44218C5.39791 -1.14743 12.7993 -1.14736 17.4912 3.44218C17.5591 3.51037 17.5981 3.60373 17.5986 3.70097C17.5991 3.79806 17.5612 3.89184 17.4941 3.96074L16.208 5.28593C16.0755 5.42191 15.8602 5.42362 15.7256 5.28984C13.938 3.55507 11.5652 2.5878 9.09864 2.58769C6.63201 2.58781 4.25941 3.55507 2.47168 5.28984C2.33714 5.42373 2.12168 5.42208 1.98926 5.28593L0.702153 3.96074C0.635184 3.89181 0.598139 3.79803 0.598638 3.70097C0.599265 3.60373 0.638094 3.51032 0.70606 3.44218Z" fill="white"/>
</svg>
